<svg xmlns="http://www.w3.org/2000/svg" viewBox="104 88 934 188" role="img" aria-label="ember" xmlns:c2pa="http://c2pa.org/manifest"><metadata><c2pa:manifest>AAAWgmp1bWIAAAAeanVtZGMycGEAEQAQgAAAqgA4m3EDYzJwYQAAABZcanVtYgAAAEdqdW1kYzJtYQARABCAAACqADibcQN1cm46YzJwYTo3Njk1ZjU0Yy04MjcxLTQ1OTItODBkMy01OTI0MGEyYjJjZDgAAAADl2p1bWIAAAApanVtZGMyYXMAEQAQgAAAqgA4m3EDYzJwYS5hc3NlcnRpb25zAAAAALxqdW1iAAAARGp1bWRjYm9yABEAEIAAAKoAOJtxE2MycGEuaW5ncmVkaWVudC52MwAAAAAYYzJzaD929PE4odzr2mvciltmI7IAAABwY2JvcqNpZGM6Zm9ybWF0bWltYWdlL3N2Zyt4bWxqaW5zdGFuY2VJRHgseG1wOmlpZDo0NDgwNzY3MS0wYzY2LTQwMzUtOTc1Yy0wYmU1NmY5ZjNiNDdscmVsYXRpb25zaGlwaHBhcmVudE9mAAAB4mp1bWIAAABBanVtZGNib3IAEQAQgAAAqgA4m3ETYzJwYS5hY3Rpb25zLnYyAAAAABhjMnNo7dU0V72qBR8mFlULxs44vQAAAZljYm9yomdhY3Rpb25zgqJmYWN0aW9ua2MycGEub3BlbmVkanBhcmFtZXRlcnOha2luZ3JlZGllbnRzgaJjdXJseC1zZWxmI2p1bWJmPWMycGEuYXNzZXJ0aW9ucy9jMnBhLmluZ3JlZGllbnQudjNkaGFzaFggb+qGhWrLW7Gvb0osS12EfiXQr4t34PcMfjL2O77GqYKkZmFjdGlvbngdY29tLmFudGhyb3BpYy5jbGF1ZGUucHJvdmlkZWRqcGFyYW1ldGVyc6F4H2NvbS5hbnRocm9waWMub3JpZ2luLWNvbmZpZGVuY2VndW5rbm93bmtkZXNjcmlwdGlvbnhmQ2xhdWRlIHByb3ZpZGVkIHRoaXMgZmlsZSBhdCB0aGUgcmVxdWVzdCBvZiBhIHVzZXIgYW5kIG1heSBoYXZlIGNyZWF0ZWQgb3IgbW9kaWZpZWQgdGhlIGZpbGUgY29udGVudHMubXNvZnR3YXJlQWdlbnShZG5hbWVmQ2xhdWRlcmFsbEFjdGlvbnNJbmNsdWRlZPUAAADIanVtYgAAAEBqdW1kY2JvcgARABCAAACqADibcRNjMnBhLmhhc2guZGF0YQAAAAAYYzJzaB1jce/FlhmlJ8wShGn3luMAAACAY2JvcqVjYWxnZnNoYTI1NmNwYWRNAAAAAAAAAAAAAAAAAGRoYXNoWCCL2g+JCiu2WKUFTCqTfZugLDY8WWGfespFG4xbZ+QOQWRuYW1lbmp1bWJmIG1hbmlmZXN0amV4Y2x1c2lvbnOBomVzdGFydBieZmxlbmd0aBkeBAAAAj5qdW1iAAAAJ2p1bWRjMmNsABEAEIAAAKoAOJtxA2MycGEuY2xhaW0udjIAAAACD2Nib3KlY2FsZ2ZzaGEyNTZpc2lnbmF0dXJleE1zZWxmI2p1bWJmPS9jMnBhL3VybjpjMnBhOjc2OTVmNTRjLTgyNzEtNDU5Mi04MGQzLTU5MjQwYTJiMmNkOC9jMnBhLnNpZ25hdHVyZWppbnN0YW5jZUlEeCx4bXA6aWlkOmI5N2E0NmJlLWRhODQtNGVlNy04MGVkLWY2Zjc1Y2EwM2MyMXJjcmVhdGVkX2Fzc2VydGlvbnODomN1cmx4LXNlbGYjanVtYmY9YzJwYS5hc3NlcnRpb25zL2MycGEuaW5ncmVkaWVudC52M2RoYXNoWCBv6oaFastbsa9vSixLXYR+JdCvi3fg9wx+MvY7vsapgqJjdXJseCpzZWxmI2p1bWJmPWMycGEuYXNzZXJ0aW9ucy9jMnBhLmFjdGlvbnMudjJkaGFzaFgg9Ep4RbZPcPXWQ8fFWMDgoGpU8gb7xGHTuoMXVFfDnDSiY3VybHgpc2VsZiNqdW1iZj1jMnBhLmFzc2VydGlvbnMvYzJwYS5oYXNoLmRhdGFkaGFzaFggMGTCEqkP7+QEJtA+mNyzd6lqg2JuX32dwALNsXMVwMF0Y2xhaW1fZ2VuZXJhdG9yX2luZm+jZG5hbWVvQW50aHJvcGljIEZpbGVzZ3ZlcnNpb25lMS4wLjBrc3BlY1ZlcnNpb25lMi40LjAAABA4anVtYgAAAChqdW1kYzJjcwARABCAAACqADibcQNjMnBhLnNpZ25hdHVyZQAAABAIY2JvctKEWQISogEmGCFZAgowggIGMIIBjaADAgECAhRA5aAK7sI50L64g/oGQgU9Z1UTADAKBggqhkjOPQQDAzBJMRcwFQYDVQQKEw5BbnRocm9waWMsIFBCQzEuMCwGA1UEAxMlQW50aHJvcGljIENvbnRlbnQgQ3JlZGVudGlhbHMgUm9vdCBDQTAeFw0yNjA4MDcxODQzNTZaFw0yODA4MDYxOTQzNTZaMEQxFzAVBgNVBAoTDkFudGhyb3BpYywgUEJDMSkwJwYDVQQDEyBBbnRocm9waWMgQ2xhdWRlIENvbnRlbnQgU2lnbmluZzBZMBMGByqGSM49AgEGCCqGSM49AwEHA0IABJh6CmvLUBgFFNU0vUKlOVtE6djd17L5SuwX0LemFisBM3dkd/3cyjxFA3Qo5S46fX0/ihY0VZ7mfb9KF703t5OjWDBWMA4GA1UdDwEB/wQEAwIHgDAVBgNVHSUEDjAMBgorBgEEAYPoXgIBMAwGA1UdEwEB/wQCMAAwHwYDVR0jBBgwFoAUzlHiBIFOZFsj+OPEz5o+nMHXXMIwCgYIKoZIzj0EAwMDZwAwZAIwMXMdFJ4BetLLVY7ORuE9noqbbAZOZn/aArXyTwFAZfKrPzxF2vPoJNf1+UCdg1XGAjBwX1zd9WGqYkqmL5SFqw1QySjr1zJfpJM9+1rdDwSPLMOPOjKuiXjoU/pUUeG9RwmhY3BhZFkNngAAAAAAAAAAAAAAAAAAAAAAAAAAAAAAAAAAAAAAAAAAAAAAAAAAAAAAAAAAAAAAAAAAAAAAAAAAAAAAAAAAAAAAAAAAAAAAAAAAAAAAAAAAAAAAAAAAAAAAAAAAAAAAAAAAAAAAAAAAAAAAAAAAAAAAAAAAAAAAAAAAAAAAAAAAAAAAAAAAAAAAAAAAAAAAAAAAAAAAAAAAAAAAAAAAAAAAAAAAAAAAAAAAAAAAAAAAAAAAAAAAAAAAAAAAAAAAAAAAAAAAAAAAAAAAAAAAAAAAAAAAAAAAAAAAAAAAAAAAAAAAAAAAAAAAAAAAAAAAAAAAAAAAAAAAAAAAAAAAAAAAAAAAAAAAAAAAAAAAAAAAAAAAAAAAAAAAAAAAAAAAAAAAAAAAAAAAAAAAAAAAAAAAAAAAAAAAAAAAAAAAAAAAAAAAAAAAAAAAAAAAAAAAAAAAAAAAAAAAAAAAAAAAAAAAAAAAAAAAAAAAAAAAAAAAAAAAAAAAAAAAAAAAAAAAAAAAAAAAAAAAAAAAAAAAAAAAAAAAAAAAAAAAAAAAAAAAAAAAAAAAAAAAAAAAAAAAAAAAAAAAAAAAAAAAAAAAAAAAAAAAAAAAAAAAAAAAAAAAAAAAAAAAAAAAAAAAAAAAAAAAAAAAAAAAAAAAAAAAAAAAAAAAAAAAAAAAAAAAAAAAAAAAAAAAAAAAAAAAAAAAAAAAAAAAAAAAAAAAAAAAAAAAAAAAAAAAAAAAAAAAAAAAAAAAAAAAAAAAAAAAAAAAAAAAAAAAAAAAAAAAAAAAAAAAAAAAAAAAAAAAAAAAAAAAAAAAAAAAAAAAAAAAAAAAAAAAAAAAAAAAAAAAAAAAAAAAAAAAAAAAAAAAAAAAAAAAAAAAAAAAAAAAAAAAAAAAAAAAAAAAAAAAAAAAAAAAAAAAAAAAAAAAAAAAAAAAAAAAAAAAAAAAAAAAAAAAAAAAAAAAAAAAAAAAAAAAAAAAAAAAAAAAAAAAAAAAAAAAAAAAAAAAAAAAAAAAAAAAAAAAAAAAAAAAAAAAAAAAAAAAAAAAAAAAAAAAAAAAAAAAAAAAAAAAAAAAAAAAAAAAAAAAAAAAAAAAAAAAAAAAAAAAAAAAAAAAAAAAAAAAAAAAAAAAAAAAAAAAAAAAAAAAAAAAAAAAAAAAAAAAAAAAAAAAAAAAAAAAAAAAAAAAAAAAAAAAAAAAAAAAAAAAAAAAAAAAAAAAAAAAAAAAAAAAAAAAAAAAAAAAAAAAAAAAAAAAAAAAAAAAAAAAAAAAAAAAAAAAAAAAAAAAAAAAAAAAAAAAAAAAAAAAAAAAAAAAAAAAAAAAAAAAAAAAAAAAAAAAAAAAAAAAAAAAAAAAAAAAAAAAAAAAAAAAAAAAAAAAAAAAAAAAAAAAAAAAAAAAAAAAAAAAAAAAAAAAAAAAAAAAAAAAAAAAAAAAAAAAAAAAAAAAAAAAAAAAAAAAAAAAAAAAAAAAAAAAAAAAAAAAAAAAAAAAAAAAAAAAAAAAAAAAAAAAAAAAAAAAAAAAAAAAAAAAAAAAAAAAAAAAAAAAAAAAAAAAAAAAAAAAAAAAAAAAAAAAAAAAAAAAAAAAAAAAAAAAAAAAAAAAAAAAAAAAAAAAAAAAAAAAAAAAAAAAAAAAAAAAAAAAAAAAAAAAAAAAAAAAAAAAAAAAAAAAAAAAAAAAAAAAAAAAAAAAAAAAAAAAAAAAAAAAAAAAAAAAAAAAAAAAAAAAAAAAAAAAAAAAAAAAAAAAAAAAAAAAAAAAAAAAAAAAAAAAAAAAAAAAAAAAAAAAAAAAAAAAAAAAAAAAAAAAAAAAAAAAAAAAAAAAAAAAAAAAAAAAAAAAAAAAAAAAAAAAAAAAAAAAAAAAAAAAAAAAAAAAAAAAAAAAAAAAAAAAAAAAAAAAAAAAAAAAAAAAAAAAAAAAAAAAAAAAAAAAAAAAAAAAAAAAAAAAAAAAAAAAAAAAAAAAAAAAAAAAAAAAAAAAAAAAAAAAAAAAAAAAAAAAAAAAAAAAAAAAAAAAAAAAAAAAAAAAAAAAAAAAAAAAAAAAAAAAAAAAAAAAAAAAAAAAAAAAAAAAAAAAAAAAAAAAAAAAAAAAAAAAAAAAAAAAAAAAAAAAAAAAAAAAAAAAAAAAAAAAAAAAAAAAAAAAAAAAAAAAAAAAAAAAAAAAAAAAAAAAAAAAAAAAAAAAAAAAAAAAAAAAAAAAAAAAAAAAAAAAAAAAAAAAAAAAAAAAAAAAAAAAAAAAAAAAAAAAAAAAAAAAAAAAAAAAAAAAAAAAAAAAAAAAAAAAAAAAAAAAAAAAAAAAAAAAAAAAAAAAAAAAAAAAAAAAAAAAAAAAAAAAAAAAAAAAAAAAAAAAAAAAAAAAAAAAAAAAAAAAAAAAAAAAAAAAAAAAAAAAAAAAAAAAAAAAAAAAAAAAAAAAAAAAAAAAAAAAAAAAAAAAAAAAAAAAAAAAAAAAAAAAAAAAAAAAAAAAAAAAAAAAAAAAAAAAAAAAAAAAAAAAAAAAAAAAAAAAAAAAAAAAAAAAAAAAAAAAAAAAAAAAAAAAAAAAAAAAAAAAAAAAAAAAAAAAAAAAAAAAAAAAAAAAAAAAAAAAAAAAAAAAAAAAAAAAAAAAAAAAAAAAAAAAAAAAAAAAAAAAAAAAAAAAAAAAAAAAAAAAAAAAAAAAAAAAAAAAAAAAAAAAAAAAAAAAAAAAAAAAAAAAAAAAAAAAAAAAAAAAAAAAAAAAAAAAAAAAAAAAAAAAAAAAAAAAAAAAAAAAAAAAAAAAAAAAAAAAAAAAAAAAAAAAAAAAAAAAAAAAAAAAAAAAAAAAAAAAAAAAAAAAAAAAAAAAAAAAAAAAAAAAAAAAAAAAAAAAAAAAAAAAAAAAAAAAAAAAAAAAAAAAAAAAAAAAAAAAAAAAAAAAAAAAAAAAAAAAAAAAAAAAAAAAAAAAAAAAAAAAAAAAAAAAAAAAAAAAAAAAAAAAAAAAAAAAAAAAAAAAAAAAAAAAAAAAAAAAAAAAAAAAAAAAAAAAAAAAAAAAAAAAAAAAAAAAAAAAAAAAAAAAAAAAAAAAAAAAAAAAAAAAAAAAAAAAAAAAAAAAAAAAAAAAAAAAAAAAAAAAAAAAAAAAAAAAAAAAAAAAAAAAAAAAAAAAAAAAAAAAAAAAAAAAAAAAAAAAAAAAAAAAAAAAAAAAAAAAAAAAAAAAAAAAAAAAAAAAAAAAAAAAAAAAAAAAAAAAAAAAAAAAAAAAAAAAAAAAAAAAAAAAAAAAAAAAAAAAAAAAAAAAAAAAAAAAAAAAAAAAAAAAAAAAAAAAAAAAAAAAAAAAAAAAAAAAAAAAAAAAAAAAAAAAAAAAAAAAAAAAAAAAAAAAAAAAAAAAAAAAAAAAAAAAAAAAAAAAAAAAAAAAAAAAAAAAAAAAAAAAAAAAAAAAAAAAAAAAAAAAAAAAAAAAAAAAAAAAAAAAAAAAAAAAAAAAAAAAAAAAAAAAAAAAAAAAAAAAAAAAAAAAAAAAAAAAAAAAAAAAAAAAAAAAAAAAAAAAAAAAAAAAAAAAAAAAAAAAAAAAAAAAAAAAAAAAAAAAAAAAAAAAAAAAAAAAAAAAAAAAAAAAAAAAAAAAAAAAAAAAAAAAAAAAAAAAAAAAAAAAAAAAAAAAAAAAAAAAAAAAAAAAAAAAAAAAAAAAAAAAAAAAAAAAAAAAAAAAAAAAAAAAAAAAAAAAAAAAAAAAAAAAAAAAAAAAAAAAAAAAAAAAAAAAAAAAAAAAAAAAAAAAAAAAAAAAAAAAAAAAAAAAAAAAAAAAAAAAAAAAAAAAAAAAAAAAAAAAAAAAAAAAAAAAAAAAAAAAAAAAAAAAAAAAAAAAAAAAAAAAAAAAAAAAAAAAAAAAAAAAAAAAAAAAAAAAAAAAAAAAAAAAAAAAAAAAAAAAAAAAAAAAAAAAAAAAAAAAAAAAAAAAAAAAAAAAAAAAAAAAAAAAAAAAAAAAAAAAAAAAAAAAAAAAAAAAAAAAAAAAAAAAAAAAAAAAAAAAAAAAAAAAAAAAAAAAAAAAAAAAAAAAAAAAAAAAAAAAAAAAAAAAAAAAAAAAAAAAAAAAAAAAAAAAAAAAAAAAAAAAAAAAAAAAAAAAAAAAAAAAAAAAAAAAAAAAAAAAAAAAAAAAAAAAAAAAAAAAAAAAAAAAAAAAAAAAAAAAAAAAAAAAAAAAAAAAAAAAAAAAAAAAAAAAAAAAAAAAAAAAAAAAAAAAAAAAAAAAAAAAAAAAAAAAAAAAAAAAAAAAAAAAAAAAAAAAAAAAAAAAAAAAAAAAAAAAAAAAAAAAAAAAAAAAAAAAAAAAAAAAAAAAAAAAAAAAAAAAAAAAAAAAAAAAAAAAAAAAAAAAAAAAAAAAAAAAAAAAAAAAAAAAAAAAAAAAAAAAAAAAAAAAAAAAAAAAAAAAAAAAAAAAAAAAAAAAAAAAAAAAAAAAAAAAAAAAAAAAAAAAAAAAAAAAAAAAAAAAAAAAAAAAAAAAAAAAAAAAAAAAAAAAAAAAAAAAAAAAAAAAAAAAAAAAAAAAAAAAAAAAAAAAAAAAAAAAAAAAAAAAAAAAAAAAAAAAAAAAAAAAAAAAAAAAAAAAAAAAAAAAAAAAAAAAAAAAAAAAAAAAAAAAAAAAAAAAAAAAAAAAAAAAAAAAAAAAAAAAAAAAAAAAAAAAAAAAAAAAAPZYQPFkUtyqGazDnNcrcXgyCqRUEcONcDAXCmcOYn2fC2tnwBVOxWlMDWlR3IeIh9Q1eBpEGfg4DcvU+8wwMHnMEZI=</c2pa:manifest></metadata><g fill="none" stroke="#302C80" stroke-width="1.1" stroke-linecap="round"><line x1="422.0" y1="99.5" x2="422.0" y2="104.5"></line><line x1="422.0" y1="101.7" x2="422.0" y2="110.3"></line><line x1="422.0" y1="108.9" x2="422.0" y2="115.1"></line><line x1="422.0" y1="115.1" x2="422.0" y2="120.9"></line><line x1="422.0" y1="120.0" x2="422.0" y2="128.0"></line><line x1="422.0" y1="126.4" x2="422.0" y2="133.6"></line><line x1="422.0" y1="132.8" x2="422.0" y2="139.2"></line><line x1="422.0" y1="138.0" x2="422.0" y2="146.0"></line><line x1="152.1" y1="147.0" x2="159.9" y2="145.0"></line><line x1="156.4" y1="146.4" x2="163.6" y2="145.6"></line><line x1="162.1" y1="146.0" x2="169.9" y2="146.0"></line><line x1="168.3" y1="145.1" x2="175.7" y2="146.9"></line><line x1="287.9" y1="146.2" x2="296.1" y2="145.8"></line><line x1="335.0" y1="146.3" x2="341.0" y2="145.7"></line><line x1="336.8" y1="146.1" x2="343.2" y2="145.9"></line><line x1="456.1" y1="146.7" x2="463.9" y2="145.3"></line><line x1="462.1" y1="146.3" x2="469.9" y2="145.7"></line><line x1="469.5" y1="145.4" x2="474.5" y2="146.6"></line><line x1="598.3" y1="147.1" x2="605.7" y2="144.9"></line><line x1="600.7" y1="146.8" x2="607.3" y2="145.2"></line><line x1="605.7" y1="146.0" x2="614.3" y2="146.0"></line><line x1="611.9" y1="145.5" x2="620.1" y2="146.5"></line><line x1="147.4" y1="148.9" x2="152.6" y2="147.1"></line><line x1="150.6" y1="149.0" x2="157.4" y2="147.0"></line><line x1="171.8" y1="146.7" x2="180.2" y2="149.3"></line><line x1="174.4" y1="146.6" x2="181.6" y2="149.4"></line><line x1="280.4" y1="149.3" x2="287.6" y2="146.7"></line><line x1="282.5" y1="149.1" x2="289.5" y2="146.9"></line><line x1="294.3" y1="145.7" x2="301.7" y2="150.3"></line><line x1="326.3" y1="150.2" x2="333.7" y2="145.8"></line><line x1="330.9" y1="149.0" x2="337.1" y2="147.0"></line><line x1="343.2" y1="146.6" x2="348.8" y2="149.4"></line><line x1="422.0" y1="143.8" x2="422.0" y2="152.2"></line><line x1="447.4" y1="149.7" x2="452.6" y2="146.3"></line><line x1="451.3" y1="148.9" x2="456.7" y2="147.1"></line><line x1="473.1" y1="146.9" x2="478.9" y2="149.1"></line><line x1="475.0" y1="146.5" x2="481.0" y2="149.5"></line><line x1="593.1" y1="149.2" x2="598.9" y2="146.8"></line><line x1="593.9" y1="149.5" x2="602.1" y2="146.5"></line><line x1="618.5" y1="147.0" x2="625.5" y2="149.0"></line><line x1="776.2" y1="149.0" x2="783.8" y2="147.0"></line><line x1="779.8" y1="148.5" x2="788.2" y2="147.5"></line><line x1="787.4" y1="148.0" x2="792.6" y2="148.0"></line><line x1="793.0" y1="148.0" x2="799.0" y2="148.0"></line><line x1="798.5" y1="147.2" x2="805.5" y2="148.8"></line><line x1="140.9" y1="151.7" x2="147.1" y2="148.3"></line><line x1="181.0" y1="148.5" x2="187.0" y2="151.5"></line><line x1="260.6" y1="147.5" x2="263.4" y2="152.5"></line><line x1="274.3" y1="152.3" x2="281.7" y2="147.7"></line><line x1="323.8" y1="151.5" x2="328.2" y2="148.5"></line><line x1="349.7" y1="147.8" x2="354.3" y2="152.2"></line><line x1="587.2" y1="151.6" x2="592.8" y2="148.4"></line><line x1="624.5" y1="148.5" x2="631.5" y2="151.5"></line><line x1="770.0" y1="151.6" x2="778.0" y2="148.4"></line><line x1="805.2" y1="147.9" x2="810.8" y2="152.1"></line><line x1="137.7" y1="153.7" x2="142.3" y2="150.3"></line><line x1="301.8" y1="149.6" x2="306.2" y2="154.4"></line><line x1="443.6" y1="153.9" x2="448.4" y2="150.1"></line><line x1="481.4" y1="150.1" x2="486.6" y2="153.9"></line><line x1="631.1" y1="150.3" x2="636.9" y2="153.7"></line><line x1="738.0" y1="148.8" x2="738.0" y2="155.2"></line><line x1="765.1" y1="154.1" x2="770.9" y2="149.9"></line><line x1="135.0" y1="156.3" x2="141.0" y2="151.7"></line><line x1="187.7" y1="152.1" x2="192.3" y2="155.9"></line><line x1="259.4" y1="150.6" x2="264.6" y2="157.4"></line><line x1="269.0" y1="155.7" x2="275.0" y2="152.3"></line><line x1="270.3" y1="156.1" x2="277.7" y2="151.9"></line><line x1="303.3" y1="151.3" x2="308.7" y2="156.7"></line><line x1="318.8" y1="156.0" x2="325.2" y2="152.0"></line><line x1="351.9" y1="151.2" x2="356.1" y2="156.8"></line><line x1="421.1" y1="150.6" x2="422.9" y2="157.4"></line><line x1="439.0" y1="156.4" x2="445.0" y2="151.6"></line><line x1="482.6" y1="151.2" x2="489.4" y2="156.8"></line><line x1="581.5" y1="156.1" x2="586.5" y2="151.9"></line><line x1="582.8" y1="156.3" x2="589.2" y2="151.7"></line><line x1="633.6" y1="152.2" x2="638.4" y2="155.8"></line><line x1="738.0" y1="150.3" x2="738.0" y2="157.7"></line><line x1="763.4" y1="155.9" x2="768.6" y2="152.1"></line><line x1="809.9" y1="151.6" x2="814.1" y2="156.4"></line><line x1="131.5" y1="158.2" x2="136.5" y2="153.8"></line><line x1="312.6" y1="158.2" x2="319.4" y2="153.8"></line><line x1="436.6" y1="158.6" x2="443.4" y2="153.4"></line><line x1="488.1" y1="154.1" x2="491.9" y2="157.9"></line><line x1="637.0" y1="153.1" x2="643.0" y2="158.9"></line><line x1="761.9" y1="157.7" x2="766.1" y2="154.3"></line><line x1="812.0" y1="153.4" x2="816.0" y2="158.6"></line><line x1="311.3" y1="158.9" x2="316.7" y2="157.1"></line><line x1="128.2" y1="162.0" x2="131.8" y2="158.0"></line><line x1="193.0" y1="156.6" x2="199.0" y2="163.4"></line><line x1="260.7" y1="162.6" x2="263.3" y2="157.4"></line><line x1="308.0" y1="156.8" x2="312.0" y2="163.2"></line><line x1="355.2" y1="157.3" x2="356.8" y2="162.7"></line><line x1="420.8" y1="156.8" x2="423.2" y2="163.2"></line><line x1="430.8" y1="161.9" x2="437.2" y2="158.1"></line><line x1="433.7" y1="161.5" x2="438.3" y2="158.5"></line><line x1="489.3" y1="156.6" x2="494.7" y2="163.4"></line><line x1="575.0" y1="163.1" x2="581.0" y2="156.9"></line><line x1="641.3" y1="156.7" x2="646.7" y2="163.3"></line><line x1="738.0" y1="155.7" x2="738.0" y2="164.3"></line><line x1="757.0" y1="163.1" x2="763.0" y2="156.9"></line><line x1="813.9" y1="156.6" x2="818.1" y2="163.4"></line><line x1="126.0" y1="164.3" x2="130.0" y2="159.7"></line><line x1="644.5" y1="160.0" x2="647.5" y2="164.0"></line><line x1="756.0" y1="164.2" x2="760.0" y2="159.8"></line><line x1="424.2" y1="165.9" x2="427.8" y2="162.1"></line><line x1="494.6" y1="161.9" x2="497.4" y2="166.1"></line><line x1="123.7" y1="169.0" x2="128.3" y2="163.0"></line><line x1="198.4" y1="163.5" x2="201.6" y2="168.5"></line><line x1="261.1" y1="169.9" x2="262.9" y2="162.1"></line><line x1="309.4" y1="169.4" x2="310.6" y2="162.6"></line><line x1="357.3" y1="162.2" x2="358.7" y2="169.8"></line><line x1="421.0" y1="168.8" x2="423.0" y2="163.2"></line><line x1="422.2" y1="169.9" x2="425.8" y2="162.1"></line><line x1="494.7" y1="163.3" x2="497.3" y2="168.7"></line><line x1="572.1" y1="168.6" x2="575.9" y2="163.4"></line><line x1="645.9" y1="162.3" x2="650.1" y2="169.7"></line><line x1="736.9" y1="163.5" x2="739.1" y2="168.5"></line><line x1="751.5" y1="168.4" x2="756.5" y2="163.6"></line><line x1="200.8" y1="165.8" x2="203.2" y2="170.2"></line><line x1="569.5" y1="171.5" x2="574.5" y2="164.5"></line><line x1="749.0" y1="170.3" x2="755.0" y2="165.7"></line><line x1="119.9" y1="175.8" x2="124.1" y2="168.2"></line><line x1="202.9" y1="169.7" x2="205.1" y2="174.3"></line><line x1="262.0" y1="167.7" x2="262.0" y2="176.3"></line><line x1="310.0" y1="169.1" x2="310.0" y2="174.9"></line><line x1="357.2" y1="167.6" x2="358.8" y2="176.4"></line><line x1="421.0" y1="175.5" x2="423.0" y2="168.5"></line><line x1="496.5" y1="168.4" x2="499.5" y2="175.6"></line><line x1="568.6" y1="174.7" x2="571.4" y2="169.3"></line><line x1="649.0" y1="169.2" x2="651.0" y2="174.8"></line><line x1="736.7" y1="169.4" x2="739.3" y2="174.6"></line><line x1="740.4" y1="172.6" x2="747.6" y2="171.4"></line><line x1="745.9" y1="173.6" x2="750.1" y2="170.4"></line><line x1="650.7" y1="172.2" x2="653.3" y2="179.8"></line><line x1="118.9" y1="181.7" x2="121.1" y2="174.3"></line><line x1="203.1" y1="174.2" x2="204.9" y2="181.8"></line><line x1="262.0" y1="174.5" x2="262.0" y2="181.5"></line><line x1="310.0" y1="175.4" x2="310.0" y2="180.6"></line><line x1="359.5" y1="175.3" x2="360.5" y2="180.7"></line><line x1="422.0" y1="173.7" x2="422.0" y2="182.3"></line><line x1="501.2" y1="175.4" x2="502.8" y2="180.6"></line><line x1="566.9" y1="181.7" x2="569.1" y2="174.3"></line><line x1="650.8" y1="173.9" x2="653.2" y2="182.1"></line><line x1="738.8" y1="180.3" x2="741.2" y2="175.7"></line><line x1="119.3" y1="188.2" x2="120.7" y2="179.8"></line><line x1="205.5" y1="179.8" x2="206.5" y2="188.2"></line><line x1="262.0" y1="179.5" x2="262.0" y2="188.5"></line><line x1="310.0" y1="179.6" x2="310.0" y2="188.4"></line><line x1="359.7" y1="180.0" x2="360.3" y2="188.0"></line><line x1="422.0" y1="180.7" x2="422.0" y2="187.3"></line><line x1="501.8" y1="181.0" x2="502.2" y2="187.0"></line><line x1="565.3" y1="187.9" x2="566.7" y2="180.1"></line><line x1="653.4" y1="179.8" x2="654.6" y2="188.2"></line><line x1="739.5" y1="187.3" x2="740.5" y2="180.7"></line><line x1="117.2" y1="187.1" x2="118.8" y2="192.9"></line><line x1="204.3" y1="192.8" x2="207.7" y2="187.2"></line><line x1="262.0" y1="185.7" x2="262.0" y2="194.3"></line><line x1="310.0" y1="186.4" x2="310.0" y2="193.6"></line><line x1="360.0" y1="186.8" x2="360.0" y2="193.2"></line><line x1="422.0" y1="186.3" x2="422.0" y2="193.7"></line><line x1="501.4" y1="186.1" x2="502.6" y2="193.9"></line><line x1="565.5" y1="186.9" x2="566.5" y2="193.1"></line><line x1="652.0" y1="193.4" x2="656.0" y2="186.6"></line><line x1="737.5" y1="193.3" x2="738.5" y2="186.7"></line><line x1="121.1" y1="194.0" x2="126.9" y2="194.0"></line><line x1="126.9" y1="194.0" x2="133.1" y2="194.0"></line><line x1="131.5" y1="194.0" x2="140.5" y2="194.0"></line><line x1="137.5" y1="194.0" x2="146.5" y2="194.0"></line><line x1="144.2" y1="194.0" x2="151.8" y2="194.0"></line><line x1="149.8" y1="194.0" x2="158.2" y2="194.0"></line><line x1="155.7" y1="194.0" x2="164.3" y2="194.0"></line><line x1="163.1" y1="194.0" x2="168.9" y2="194.0"></line><line x1="168.2" y1="194.0" x2="175.8" y2="194.0"></line><line x1="175.2" y1="194.0" x2="180.8" y2="194.0"></line><line x1="180.5" y1="194.0" x2="187.5" y2="194.0"></line><line x1="186.4" y1="194.0" x2="193.6" y2="194.0"></line><line x1="192.0" y1="194.0" x2="200.0" y2="194.0"></line><line x1="565.3" y1="197.5" x2="570.7" y2="190.5"></line><line x1="570.7" y1="192.8" x2="577.3" y2="195.2"></line><line x1="577.1" y1="194.0" x2="582.9" y2="194.0"></line><line x1="582.6" y1="194.0" x2="589.4" y2="194.0"></line><line x1="589.2" y1="194.0" x2="594.8" y2="194.0"></line><line x1="594.2" y1="194.0" x2="601.8" y2="194.0"></line><line x1="600.5" y1="194.0" x2="607.5" y2="194.0"></line><line x1="606.4" y1="194.0" x2="613.6" y2="194.0"></line><line x1="612.5" y1="194.0" x2="619.5" y2="194.0"></line><line x1="618.0" y1="194.0" x2="626.0" y2="194.0"></line><line x1="624.8" y1="194.0" x2="631.2" y2="194.0"></line><line x1="630.0" y1="194.0" x2="638.0" y2="194.0"></line><line x1="637.4" y1="194.0" x2="642.6" y2="194.0"></line><line x1="643.1" y1="195.1" x2="648.9" y2="192.9"></line><line x1="117.1" y1="199.5" x2="118.9" y2="192.5"></line><line x1="262.0" y1="193.1" x2="262.0" y2="198.9"></line><line x1="310.0" y1="192.1" x2="310.0" y2="199.9"></line><line x1="360.0" y1="192.9" x2="360.0" y2="199.1"></line><line x1="422.0" y1="193.0" x2="422.0" y2="199.0"></line><line x1="503.4" y1="192.2" x2="504.6" y2="199.8"></line><line x1="562.6" y1="199.0" x2="565.4" y2="193.0"></line><line x1="738.0" y1="193.3" x2="738.0" y2="198.7"></line><line x1="116.6" y1="205.8" x2="119.4" y2="198.2"></line><line x1="262.0" y1="197.9" x2="262.0" y2="206.1"></line><line x1="310.0" y1="197.7" x2="310.0" y2="206.3"></line><line x1="360.0" y1="197.7" x2="360.0" y2="206.3"></line><line x1="422.0" y1="198.1" x2="422.0" y2="205.9"></line><line x1="504.0" y1="197.6" x2="504.0" y2="206.4"></line><line x1="563.1" y1="204.4" x2="564.9" y2="199.6"></line><line x1="738.0" y1="198.0" x2="738.0" y2="206.0"></line><line x1="118.0" y1="204.3" x2="118.0" y2="211.7"></line><line x1="262.0" y1="204.1" x2="262.0" y2="211.9"></line><line x1="310.0" y1="203.7" x2="310.0" y2="212.3"></line><line x1="360.0" y1="205.4" x2="360.0" y2="210.6"></line><line x1="422.0" y1="205.2" x2="422.0" y2="210.8"></line><line x1="503.7" y1="210.6" x2="504.3" y2="205.4"></line><line x1="564.0" y1="205.3" x2="564.0" y2="210.7"></line><line x1="738.0" y1="205.3" x2="738.0" y2="210.7"></line><line x1="118.0" y1="211.5" x2="118.0" y2="216.5"></line><line x1="262.0" y1="210.3" x2="262.0" y2="217.7"></line><line x1="310.0" y1="209.6" x2="310.0" y2="218.4"></line><line x1="360.0" y1="211.1" x2="360.0" y2="216.9"></line><line x1="422.0" y1="211.2" x2="422.0" y2="216.8"></line><line x1="501.5" y1="216.9" x2="502.5" y2="211.1"></line><line x1="563.5" y1="210.2" x2="564.5" y2="217.8"></line><line x1="738.0" y1="211.0" x2="738.0" y2="217.0"></line><line x1="117.5" y1="216.6" x2="118.5" y2="223.4"></line><line x1="262.0" y1="215.5" x2="262.0" y2="224.5"></line><line x1="310.0" y1="216.7" x2="310.0" y2="223.3"></line><line x1="360.0" y1="216.2" x2="360.0" y2="223.8"></line><line x1="422.0" y1="216.0" x2="422.0" y2="224.0"></line><line x1="501.8" y1="223.3" x2="502.2" y2="216.7"></line><line x1="565.4" y1="216.7" x2="566.6" y2="223.3"></line><line x1="738.0" y1="217.4" x2="738.0" y2="222.6"></line><line x1="119.4" y1="223.1" x2="120.6" y2="228.9"></line><line x1="262.0" y1="221.9" x2="262.0" y2="230.1"></line><line x1="310.0" y1="221.6" x2="310.0" y2="230.4"></line><line x1="360.0" y1="223.2" x2="360.0" y2="228.8"></line><line x1="422.0" y1="221.6" x2="422.0" y2="230.4"></line><line x1="501.6" y1="229.5" x2="502.4" y2="222.5"></line><line x1="565.4" y1="223.3" x2="566.6" y2="228.7"></line><line x1="738.0" y1="223.1" x2="738.0" y2="228.9"></line><line x1="567.0" y1="226.4" x2="569.0" y2="233.6"></line><line x1="119.2" y1="229.3" x2="120.8" y2="234.7"></line><line x1="262.0" y1="229.3" x2="262.0" y2="234.7"></line><line x1="310.0" y1="229.0" x2="310.0" y2="235.0"></line><line x1="360.0" y1="228.2" x2="360.0" y2="235.8"></line><line x1="422.0" y1="228.4" x2="422.0" y2="235.6"></line><line x1="498.8" y1="235.3" x2="501.2" y2="228.7"></line><line x1="566.4" y1="227.8" x2="569.6" y2="236.2"></line><line x1="738.0" y1="229.3" x2="738.0" y2="234.7"></line><line x1="122.3" y1="235.1" x2="125.7" y2="240.9"></line><line x1="262.0" y1="234.9" x2="262.0" y2="241.1"></line><line x1="310.0" y1="235.5" x2="310.0" y2="240.5"></line><line x1="360.0" y1="235.5" x2="360.0" y2="240.5"></line><line x1="421.2" y1="234.8" x2="422.8" y2="241.2"></line><line x1="496.9" y1="240.4" x2="499.1" y2="235.6"></line><line x1="568.4" y1="235.5" x2="571.6" y2="240.5"></line><line x1="738.0" y1="233.7" x2="738.0" y2="242.3"></line><line x1="571.6" y1="238.7" x2="576.4" y2="245.3"></line><line x1="123.2" y1="241.1" x2="128.8" y2="246.9"></line><line x1="262.0" y1="240.6" x2="262.0" y2="247.4"></line><line x1="310.0" y1="239.8" x2="310.0" y2="248.2"></line><line x1="360.0" y1="239.6" x2="360.0" y2="248.4"></line><line x1="420.7" y1="240.1" x2="423.3" y2="247.9"></line><line x1="422.5" y1="240.5" x2="425.5" y2="247.5"></line><line x1="494.3" y1="247.2" x2="497.7" y2="240.8"></line><line x1="572.0" y1="241.5" x2="576.0" y2="246.5"></line><line x1="654.8" y1="247.1" x2="657.2" y2="240.9"></line><line x1="738.0" y1="240.5" x2="738.0" y2="247.5"></line><line x1="127.6" y1="243.4" x2="132.4" y2="248.6"></line><line x1="491.9" y1="249.0" x2="496.1" y2="243.0"></line><line x1="426.2" y1="247.0" x2="433.8" y2="249.0"></line><line x1="129.2" y1="247.4" x2="134.8" y2="252.6"></line><line x1="262.0" y1="246.2" x2="262.0" y2="253.8"></line><line x1="310.0" y1="246.0" x2="310.0" y2="254.0"></line><line x1="360.0" y1="245.7" x2="360.0" y2="254.3"></line><line x1="420.0" y1="253.7" x2="424.0" y2="246.3"></line><line x1="429.9" y1="248.2" x2="438.1" y2="251.8"></line><line x1="433.0" y1="248.4" x2="439.0" y2="251.6"></line><line x1="489.6" y1="252.5" x2="494.4" y2="247.5"></line><line x1="576.8" y1="246.9" x2="583.2" y2="253.1"></line><line x1="651.1" y1="253.4" x2="656.9" y2="246.6"></line><line x1="738.0" y1="246.8" x2="738.0" y2="253.2"></line><line x1="133.9" y1="250.4" x2="138.1" y2="253.6"></line><line x1="439.4" y1="250.2" x2="444.6" y2="253.8"></line><line x1="200.1" y1="255.8" x2="207.9" y2="252.2"></line><line x1="483.0" y1="256.5" x2="489.0" y2="251.5"></line><line x1="582.7" y1="251.8" x2="589.3" y2="256.2"></line><line x1="646.7" y1="256.9" x2="653.3" y2="251.1"></line><line x1="136.7" y1="253.7" x2="143.3" y2="258.3"></line><line x1="139.5" y1="254.6" x2="144.5" y2="257.4"></line><line x1="195.2" y1="256.9" x2="200.8" y2="255.1"></line><line x1="198.0" y1="257.1" x2="206.0" y2="254.9"></line><line x1="262.0" y1="253.3" x2="262.0" y2="258.7"></line><line x1="310.0" y1="251.7" x2="310.0" y2="260.3"></line><line x1="360.0" y1="251.9" x2="360.0" y2="260.1"></line><line x1="440.8" y1="254.0" x2="447.2" y2="258.0"></line><line x1="444.5" y1="254.2" x2="451.5" y2="257.8"></line><line x1="481.1" y1="258.1" x2="486.9" y2="253.9"></line><line x1="585.1" y1="254.3" x2="590.9" y2="257.7"></line><line x1="639.9" y1="257.2" x2="648.1" y2="254.8"></line><line x1="642.9" y1="257.8" x2="649.1" y2="254.2"></line><line x1="738.0" y1="251.8" x2="738.0" y2="260.2"></line><line x1="145.1" y1="257.0" x2="150.9" y2="259.0"></line><line x1="186.2" y1="258.9" x2="193.8" y2="257.1"></line><line x1="476.9" y1="259.3" x2="483.1" y2="256.7"></line><line x1="589.0" y1="256.6" x2="595.0" y2="259.4"></line><line x1="633.2" y1="258.5" x2="638.8" y2="257.5"></line><line x1="150.3" y1="259.6" x2="157.7" y2="260.4"></line><line x1="157.1" y1="259.6" x2="162.9" y2="260.4"></line><line x1="169.8" y1="260.7" x2="178.2" y2="259.3"></line><line x1="173.9" y1="260.5" x2="182.1" y2="259.5"></line><line x1="180.8" y1="260.4" x2="187.2" y2="259.6"></line><line x1="450.3" y1="258.9" x2="457.7" y2="261.1"></line><line x1="455.8" y1="259.5" x2="464.2" y2="260.5"></line><line x1="465.3" y1="260.0" x2="470.7" y2="260.0"></line><line x1="468.9" y1="260.4" x2="475.1" y2="259.6"></line><line x1="593.8" y1="259.0" x2="602.2" y2="261.0"></line><line x1="601.5" y1="259.8" x2="606.5" y2="260.2"></line><line x1="607.3" y1="259.6" x2="612.7" y2="260.4"></line><line x1="616.7" y1="260.3" x2="623.3" y2="259.7"></line><line x1="619.5" y1="260.4" x2="624.5" y2="259.6"></line><line x1="624.1" y1="260.3" x2="631.9" y2="259.7"></line><line x1="161.7" y1="261.5" x2="170.3" y2="262.5"></line><line x1="169.2" y1="262.3" x2="174.8" y2="261.7"></line><line x1="463.1" y1="262.0" x2="468.9" y2="262.0"></line><line x1="609.6" y1="261.8" x2="618.4" y2="262.2"></line><line x1="612.1" y1="262.0" x2="619.9" y2="262.0"></line><line x1="906.8" y1="214.3" x2="898.4" y2="221.3"></line><line x1="884.2" y1="188.3" x2="880.4" y2="189.5"></line><line x1="949.9" y1="215.3" x2="965.2" y2="220.5"></line><line x1="938.3" y1="166.7" x2="928.9" y2="177.5"></line><line x1="848.8" y1="200.2" x2="851.9" y2="203.9"></line><line x1="987.0" y1="173.3" x2="980.9" y2="189.8"></line><line x1="979.8" y1="208.2" x2="984.7" y2="211.1"></line><line x1="968.4" y1="167.6" x2="968.5" y2="173.9"></line><line x1="960.1" y1="166.0" x2="977.8" y2="166.7"></line><line x1="988.1" y1="146.4" x2="1000.0" y2="158.5"></line><line x1="999.9" y1="175.5" x2="987.1" y2="184.0"></line><line x1="1014.3" y1="142.8" x2="1007.3" y2="145.9"></line><line x1="991.3" y1="225.9" x2="986.5" y2="228.8"></line><line x1="877.6" y1="141.2" x2="873.1" y2="151.9"></line><line x1="993.2" y1="129.6" x2="997.6" y2="141.2"></line><line x1="974.4" y1="158.1" x2="965.7" y2="169.9"></line><line x1="888.4" y1="185.6" x2="886.9" y2="192.3"></line><line x1="943.2" y1="194.3" x2="947.8" y2="197.8"></line><line x1="899.6" y1="207.7" x2="903.2" y2="214.7"></line><line x1="891.7" y1="190.0" x2="903.7" y2="193.9"></line><line x1="914.0" y1="187.5" x2="906.7" y2="193.4"></line><line x1="999.2" y1="119.9" x2="987.0" y2="124.2"></line><line x1="856.1" y1="196.4" x2="855.3" y2="201.7"></line><line x1="940.3" y1="138.2" x2="936.5" y2="152.9"></line><line x1="887.7" y1="194.4" x2="881.7" y2="203.1"></line><line x1="854.4" y1="199.7" x2="853.3" y2="204.5"></line><line x1="998.0" y1="251.3" x2="985.5" y2="253.7"></line><line x1="936.2" y1="148.0" x2="947.3" y2="149.6"></line><line x1="980.5" y1="116.9" x2="982.6" y2="125.7"></line><line x1="957.6" y1="182.8" x2="942.5" y2="187.9"></line><line x1="928.2" y1="226.0" x2="926.3" y2="230.3"></line><line x1="865.9" y1="168.5" x2="876.5" y2="169.0"></line><line x1="887.1" y1="205.4" x2="891.9" y2="205.5"></line><line x1="923.4" y1="194.7" x2="909.2" y2="197.9"></line><line x1="948.5" y1="133.4" x2="954.6" y2="144.7"></line><line x1="914.1" y1="223.7" x2="911.6" y2="228.2"></line><line x1="1005.5" y1="116.8" x2="1018.7" y2="117.3"></line><circle cx="948.7" cy="134.6" r="1.4" fill="#302C80" stroke="none"></circle><line x1="1005.5" y1="239.7" x2="997.6" y2="244.0"></line><line x1="885.4" y1="196.3" x2="890.7" y2="199.7"></line><line x1="939.6" y1="187.6" x2="926.5" y2="192.8"></line></g></svg>